<?xml version="1.0" encoding="utf-8"?>
<!-- Generator: Adobe Illustrator 18.0.0, SVG Export Plug-In . SVG Version: 6.00 Build 0)  -->
<!DOCTYPE svg PUBLIC "-//W3C//DTD SVG 1.1//EN" "http://www.w3.org/Graphics/SVG/1.1/DTD/svg11.dtd">
<svg version="1.1" id="Layer_1" xmlns="http://www.w3.org/2000/svg" xmlns:xlink="http://www.w3.org/1999/xlink" x="0px" y="0px"
	 viewBox="0 0 100 100" enable-background="new 0 0 100 100" xml:space="preserve">
<g>
	<path fill="#512200" d="M83.1,42.5c1.1,4.1,1.7,8.5,1.7,13.1c0,0.5,0,1.1,0,1.6l5.4,2.1l4.5-3.7l3.4,4l-6.7,5.5l-7-2.8
		c-0.8,6.1-2.7,11.8-5.3,16.8l1-1.3l5.2,3l4.9-3l2.8,4.5l-7.4,4.5L77.3,82C70.9,92,61,98.3,49.9,98.3c-11.1,0-21-6.3-27.4-16.2
		l-8.1,4.7l-7.4-4.5l2.8-4.5l5,3l5.2-3l0.4,0.5c-2.5-4.8-4.2-10.1-4.9-15.9l-6.7,2.7L2,59.7l3.4-4l4.5,3.7l5.1-2c0-0.6,0-1.1,0-1.7
		c0-4.6,0.6-9,1.7-13.1L8,42.2l-3.8-7.7L9,32.2l2.5,5.2l6,0.3l0.1,1.7c3.6-10.7,10.7-19.2,19.5-23.5c0.2-3.3,2.9-5.9,6.2-5.9h14.6
		c3.5,0,6.3,2.8,6.3,6.2c0,0.1,0,0.3,0,0.4C72.4,21.2,79,29.6,82.3,40l0.1-2.3l6-0.3l2.5-5.2l4.8,2.3L92,42.2L83.1,42.5z"/>
	<polygon fill="#512200" points="67.5,4.5 66.8,6.4 65.8,6.8 63.6,7.5 61.7,8.6 59.1,10 59.1,8.6 62,6.5 64.2,5.8 66.1,4.5 
		67.2,2.4 69.3,1.7 68.7,3.7 	"/>
	<polygon fill="#512200" points="37.7,7.5 35.4,6.8 34.4,6.4 33.7,4.5 32.5,3.7 31.9,1.7 34.1,2.4 35.1,4.5 37,5.8 39.2,6.5 
		42.2,8.6 42.2,10 39.5,8.6 	"/>
</g>
</svg>
