<svg xmlns="http://www.w3.org/2000/svg" viewBox="0 0 100 100" enable-background="new 0 0 100 100"><g fill="#512200"><path d="M83.1 42.5c1.1 4.1 1.7 8.5 1.7 13.1v1.6l5.4 2.1 4.5-3.7 3.4 4-6.7 5.5-7-2.8c-.8 6.1-2.7 11.8-5.3 16.8l1-1.3 5.2 3 4.9-3 2.8 4.5-7.4 4.5-8.3-4.8c-6.4 10-16.3 16.3-27.4 16.3-11.1 0-21-6.3-27.4-16.2l-8.1 4.7-7.4-4.5 2.8-4.5 5 3 5.2-3 .4.5c-2.5-4.8-4.2-10.1-4.9-15.9l-6.7 2.7-6.8-5.4 3.4-4 4.5 3.7 5.1-2v-1.7c0-4.6.6-9 1.7-13.1l-8.7-.4-3.8-7.7 4.8-2.3 2.5 5.2 6 .3.1 1.7c3.6-10.7 10.7-19.2 19.5-23.5.2-3.3 2.9-5.9 6.2-5.9h14.6c3.5 0 6.3 2.8 6.3 6.2v.4c8.2 4.6 14.8 13 18.1 23.4l.1-2.3 6-.3 2.5-5.2 4.8 2.3-3.7 7.7-8.9.3zM67.5 4.5l-.7 1.9-1 .4-2.2.7-1.9 1.1-2.6 1.4v-1.4l2.9-2.1 2.2-.7 1.9-1.3 1.1-2.1 2.1-.7-.6 2zM37.7 7.5l-2.3-.7-1-.4-.7-1.9-1.2-.8-.6-2 2.2.7 1 2.1 1.9 1.3 2.2.7 3 2.1v1.4l-2.7-1.4z"/></g></svg>